<svg id="eyM6Cvd0zxK1" xmlns="http://www.w3.org/2000/svg" xmlns:xlink="http://www.w3.org/1999/xlink" viewBox="0 0 1018.9 348.23" shape-rendering="geometricPrecision" text-rendering="geometricPrecision" style="background-color:transparent"><style><![CDATA[#eyM6Cvd0zxK21_to {animation: eyM6Cvd0zxK21_to__to 4000ms linear 1 normal forwards}@keyframes eyM6Cvd0zxK21_to__to { 0% {transform: translate(347.648506px,11.42563px)} 25% {transform: translate(347.648506px,11.42563px);animation-timing-function: cubic-bezier(0,0,0.58,1)} 57.5% {transform: translate(297.97107px,177.511413px)} 100% {transform: translate(297.97107px,177.511413px)}} #eyM6Cvd0zxK21_tr {animation: eyM6Cvd0zxK21_tr__tr 4000ms linear 1 normal forwards}@keyframes eyM6Cvd0zxK21_tr__tr { 0% {transform: rotate(24.855285deg)} 27.5% {transform: rotate(24.855285deg);animation-timing-function: cubic-bezier(0,0,0.58,1)} 52.5% {transform: rotate(0deg)} 100% {transform: rotate(0deg)}} #eyM6Cvd0zxK40_to {animation: eyM6Cvd0zxK40_to__to 4000ms linear 1 normal forwards}@keyframes eyM6Cvd0zxK40_to__to { 0% {transform: translate(319.929903px,262.08752px)} 65% {transform: translate(319.929903px,262.08752px);animation-timing-function: cubic-bezier(0.25,1,0.25,1)} 72.5% {transform: translate(322.845021px,236.367267px)} 77.5% {transform: translate(322.845021px,236.367267px);animation-timing-function: cubic-bezier(0.25,1,0.25,1)} 85% {transform: translate(321.777636px,262.837539px)} 100% {transform: translate(321.777636px,262.837539px)}} #eyM6Cvd0zxK50_to {animation: eyM6Cvd0zxK50_to__to 4000ms linear 1 normal forwards}@keyframes eyM6Cvd0zxK50_to__to { 0% {transform: translate(272.322984px,223.515039px)} 37.5% {transform: translate(272.322984px,223.515039px)} 50% {transform: translate(293.796237px,187.925226px)} 100% {transform: translate(293.796237px,187.925226px)}}]]></style><g transform="matrix(1.3333 0 0-1.3333 0.002665 348.224669)"><g clip-path="url(#eyM6Cvd0zxK51)"><g><g><g transform="translate(102.639999 98.364998)"><path d="M0,0v-5.832h-24.883v4.082c0,15.552-9.914,22.355-25.466,22.355-13.608,0-21.967-6.803-21.967-16.134c0-12.83,12.053-15.163,28.382-18.857l1.749-.388c27.994-6.221,44.518-16.135,44.518-40.824c0-27.41-21.384-42.767-50.349-42.767-33.242,0-54.626,17.885-54.626,49.765v4.277h25.272v-3.499c0-16.718,9.525-27.993,30.131-27.993c16.524,0,24.3,8.748,24.3,18.856c0,11.858-10.109,15.747-27.993,19.635l-1.75.388c-28.187,6.221-44.905,15.941-44.905,40.629c0,24.3,20.8,39.463,47.238,39.463C-21.189,43.156,0,27.215,0,0" fill="#2e51c7"/></g><g transform="translate(187.399994 60.847)"><path d="M0,0c-1.75,12.247-9.526,20.022-22.162,20.022-13.802,0-20.994-8.165-22.939-20.022ZM-21.967,41.018c27.993,0,46.85-19.634,46.85-48.6v-9.525h-70.178c.972-12.83,10.109-22.745,24.106-22.745c13.607,0,20.8,7.581,24.105,14.385L22.938,-37.13c-6.609-10.108-17.884-23.717-43.739-23.717-28.77,0-49.571,21.773-49.571,51.71c0,29.159,20.023,50.155,48.405,50.155" fill="#2e51c7"/></g><g transform="translate(271.769989 101.860001)"><path d="M0,0c26.827,0,43.545-14.969,48.6-36.936l-24.106-6.22c-1.749,11.664-9.331,21.384-24.105,21.384s-26.049-11.665-26.049-29.16c0-17.496,10.303-29.16,26.049-29.16c14.774,0,21.578,8.554,24.105,21.19L48.6,-64.929c-4.666-21.967-21.579-36.935-48.6-36.935-27.993,0-50.154,20.995-50.154,50.932s22.161,50.932,50.154,50.932" fill="#2e51c7"/></g><g transform="translate(351.079987 12.053)"><path d="M0,0h42.767c19.44,0,29.937,11.858,29.937,27.41c0,16.329-10.497,27.021-31.103,27.021h-41.601ZM0,63.763h42.767c19.05,0,29.937,11.468,29.937,27.409c0,15.357-11.664,26.244-30.326,26.244h-42.378Zm43.155,62.984c22.745,0,40.046-13.414,40.046-35.186c0-18.663-13.607-28.188-24.688-31.298v-2.332c11.664-2.333,24.688-12.83,24.688-31.298c0-22.94-17.495-35.964-40.823-35.964h-52.876v136.08Z" fill="#2e51c7"/></g><g transform="translate(492.600006 8.5537)"><path d="M0,0C23.717,0,41.212,13.607,41.212,38.102v2.333L1.944,36.936c-16.913-1.556-28.381-6.804-28.381-19.051C-26.437,5.638,-14.19,0,0,0M11.081,90.978c25.66,0,39.851-14.969,39.851-37.325v-59.485h-9.33v17.302h-2.722C33.242,1.555,21.384,-8.554,-0.389,-8.554c-19.245,0-35.769,9.72-35.769,26.827C-36.158,35.769,-18.273,43.545,0,45.1l41.212,3.694v5.637c0,16.524-10.886,27.604-30.52,27.604-19.246,0-30.326-10.497-37.324-24.688l-8.748,3.888c6.998,14.774,22.161,29.743,46.461,29.743" fill="#2e51c7"/></g><g transform="translate(607.099976 99.530998)"><path d="M0,0c18.662,0,33.436-7.581,46.85-26.049l-7.971-4.86C29.354,-15.94,15.357,-8.554,0.194,-8.554c-14.58,0-25.077-5.636-25.077-17.106c0-12.442,11.469-15.552,25.66-17.691l10.497-1.554c22.356-3.305,35.576-9.526,35.576-25.467c0-17.107-15.552-29.159-40.435-29.159-26.633,0-41.99,16.523-48.405,32.853l8.942,3.694c6.61-17.691,20.024-27.605,39.463-27.605c18.662,0,30.715,7.971,30.715,20.023c0,11.275-11.47,14.385-27.41,16.718l-10.498,1.555c-19.44,2.916-33.825,8.748-33.825,26.244C-34.603,-9.525,-19.245,0,0,0" fill="#2e51c7"/></g><g transform="translate(754.070007 56.181)"><path d="M0,0c-.777,22.55-14.773,34.408-34.797,34.408-19.828,0-34.602-13.024-36.935-34.408ZM-34.797,43.351c26.05,0,44.906-16.913,44.906-45.684v-6.221h-81.841c1.361-24.104,16.33-38.684,38.296-38.684c18.274,0,27.411,9.525,32.853,21.772l9.331-3.693c-6.415-13.219-17.106-27.022-42.184-27.022-29.354,0-48.405,21.967-48.405,50.543c0,27.799,20.024,48.989,47.044,48.989" fill="#2e51c7"/></g></g><g mask="url(#eyM6Cvd0zxK49)"><g id="eyM6Cvd0zxK21_to" transform="translate(347.648506,11.42563)"><g id="eyM6Cvd0zxK21_tr" transform="rotate(24.855285)"><g transform="translate(-297.97107,-177.511413)"><g transform="translate(343.470001 217.089996)"><path d="M0,0c-9.365,12.19-13.546,12.455-13.546,12.455s5.391,17.012,1.731,22.175c-3.661,5.163-5.303,12.077-22.355,7.011c0,0-21.564,7.523-32.254-3.835c0,0-21.426,6.947-21.306-8.931s4.303-25.8,4.303-25.8-8.261-11.336-8.642-13.577c-.38-2.241-6.024-9.223,7.407-15.811s21.427-6.948,25.832-22.93c2.877-10.44,10.422-45.368,26.309-73.998l26.469,6.587c-10.506,14.14-20.793,34.431-22.34,60.857c0,0-8.137,20.642,18.506,36.138c0,0,19.25,7.468,9.886,19.659" fill="#78cef3"/></g><g transform="translate(265 217.649994)"><path d="M0,0c-1.182.931-2.076,2.197-2.661,3.595-2.453,5.858-6.231,24.088,6.877,23.037C20.345,25.338,20.003,6.279,20.003,6.279s-5.895-17.393-20.003-6.279" fill="#00adef"/></g><g transform="translate(267.149994 217.429993)"><path d="M0,0c-1,.787-1.755,1.857-2.25,3.04-2.074,4.953-5.269,20.367,5.815,19.478C17.202,21.424,16.913,5.309,16.913,5.309s-4.984-14.706-16.913-5.309" fill="#fff"/></g><g transform="translate(310.799988 224.100006)"><path d="M0,0c-.979,1.147-1.612,2.567-1.919,4.058-1.287,6.247-1.52,24.94,11.095,21.364C24.699,21.021,20.749,2.311,20.749,2.311s-9.064-15.995-20.749-2.311" fill="#00adef"/></g><g transform="translate(311.480011 222.919998)"><path d="M0,0c-.803.941-1.322,2.105-1.574,3.329-1.055,5.123-1.246,20.456,9.1,17.523c12.732-3.61,9.493-18.956,9.493-18.956s-7.435-13.12-17.019-1.896" fill="#fff"/></g><g transform="translate(278.779999 225.550003)"><path d="M0,0c0-3.283-2.662-5.945-5.944-5.945-3.284,0-5.945,2.662-5.945,5.945s2.661,5.944,5.945,5.944C-2.662,5.944,0,3.283,0,0" fill="#2e51c7"/></g><g transform="translate(325.089996 229.550003)"><path d="M0,0c0-3.283-2.661-5.945-5.944-5.945-3.284,0-5.945,2.662-5.945,5.945s2.661,5.944,5.945,5.944C-2.661,5.944,0,3.283,0,0" fill="#2e51c7"/></g><g mask="url(#eyM6Cvd0zxK39)"><g transform="translate(310.799988 224.100006)"><path d="M0,0c-.979,1.147-1.612,2.567-1.919,4.058-1.287,6.247-1.52,24.94,11.095,21.364C24.699,21.021,20.749,2.311,20.749,2.311s-9.064-15.995-20.749-2.311" fill="#00adef"/></g><mask id="eyM6Cvd0zxK39" mask-type="alpha"><g id="eyM6Cvd0zxK40_to" transform="translate(319.929903,262.08752)"><path d="M311.462321,22.809188c-9.124079-.239609-14.175873,8.862032-10.754401,28.30201c1.359877,7.726493,22.296783,11.15988,27.176661,5.938505q3.769825-13.960975,0-21.634117c-3.769825-7.673142-4.071901-12.282063-16.42226-12.606398Z" transform="translate(-316.559524,-39.819401)" fill="#69d8d5" stroke-width="2.0378"/></g></mask></g><g transform="translate(330.529999 222.509995)"><path d="M0,0c0,0-4.436,2.665-9.263-1.349c0,0-.676-2.558-7.328,3.167-6.651,5.726-30.201,4.317-37.997-7.051c0,0-1.122-4.278-4.612-3.656-3.491.622-6.865,2.155-8.684.779-1.819-1.377-14.38-10.623.512-17.595c0,0,7.912,1.913,16.214-6.78s18.309-23.792,26.683-14.278c8.373,9.514,18.077,25.663,18.8,26.464.722.801,1.635,2.722,4.746,3.076C2.182,-16.87,13.145,-6.664,0,0" fill="#2e51c7"/></g><g transform="translate(294.709991 207.919998)"><path d="M0,0c0,0-.247,4.412-2.726,2.025C-5.205,-0.36,-3.707,-4.947,0,0" fill="#fff"/></g><g transform="translate(325.880005 212.360001)"><path d="M0,0c0,0-16.871-22.853-19.733-26.813-2.863-3.96-7.1-13.022-16.73,1.902c0,0-11.148,13.604-20.481,18.974c0,0-2.096,2.741,6.029.083c8.122-2.659,18.586-12.404,20.222-13.386c1.635-.983,5.458-4.268,9.274,2.084C-17.603,-10.806,-4.878,2.333,0,0" fill="#fff"/></g><g transform="translate(304.540009 210.220001)"><path d="M0,0c0,0-3.836,2.058-3.192-1.292s5.311-4.426,3.192,1.292" fill="#fff"/></g></g></g></g><mask id="eyM6Cvd0zxK49" mask-type="alpha"><g id="eyM6Cvd0zxK50_to" transform="translate(272.322984,223.515039)"><rect width="138.155932" height="103.123221" rx="0" ry="0" transform="rotate(15.700384) scale(1.346807,2.055936) translate(-64.186211,-46.157668)" fill="#d2dbed" stroke-width="0"/></g></mask></g></g><clipPath id="eyM6Cvd0zxK51"><path d="M0,261.172h764.177v-261.172L0,0Z"/></clipPath></g></g></svg>